<svg width="164" height="52" viewBox="0 0 164 52" fill="none" xmlns="http://www.w3.org/2000/svg">
<circle cx="19" cy="26" r="19" fill="#FF7F57"/>
<circle cx="64" cy="26" r="26" fill="#FFC629"/>
<path d="M108.392 19.816C105.576 18.9653 103.508 18.54 102.188 18.54C100.897 18.54 100.003 19.112 99.504 20.256C99.0347 21.4 98.8 23.2187 98.8 25.712C98.8 28.176 99.02 29.98 99.46 31.124C99.9293 32.2387 100.868 32.796 102.276 32.796C102.687 32.796 103.479 32.6787 104.652 32.444V29.1H102.672V23.908H111.076V39H105.884L105.18 37.592H105.004C104.505 38.0027 104.109 38.3107 103.816 38.516C102.995 39.132 101.836 39.44 100.34 39.44C94.2093 39.44 91.144 34.8053 91.144 25.536C91.144 20.9013 91.9507 17.3667 93.564 14.932C95.1773 12.468 97.8907 11.236 101.704 11.236C104.755 11.236 107.38 11.7053 109.58 12.644L108.392 19.816ZM133.232 11.676L126.72 30.552V39H119.24V30.552L112.816 11.676H121.088L123.068 20.564H123.42L125.312 11.676H133.232ZM161.607 39H154.699V24.744H154.303L151.707 39H144.623L142.159 24.744H141.719V39H134.899L135.823 11.676H145.723L148.187 26.46H148.539L150.915 11.676H160.683L161.607 39Z" fill="white"/>
</svg>
